<?xml version="1.0" encoding="UTF-8" standalone="no"?>
<!-- Generator: Adobe Illustrator 16.0.3, SVG Export Plug-In . SVG Version: 6.00 Build 0)  -->
<svg xmlns:dc="http://purl.org/dc/elements/1.1/" xmlns:cc="http://creativecommons.org/ns#" xmlns:rdf="http://www.w3.org/1999/02/22-rdf-syntax-ns#" xmlns:svg="http://www.w3.org/2000/svg" xmlns="http://www.w3.org/2000/svg" xmlns:sodipodi="http://sodipodi.sourceforge.net/DTD/sodipodi-0.dtd" xmlns:inkscape="http://www.inkscape.org/namespaces/inkscape" version="1.1" id="Layer_1" x="0px" y="0px" width="731.177" height="776.86603" viewBox="0 50 731.177 578.86601" enable-background="new 0 0 1000 1405.488" xml:space="preserve" inkscape:version="0.48.4 r9939" sodipodi:docname="The_C_Programming_Language,_First_Edition_Cover.svg"><metadata id="metadata187"><rdf:RDF><cc:Work rdf:about=""><dc:format>image/svg+xml</dc:format><dc:type rdf:resource="http://purl.org/dc/dcmitype/StillImage"/></cc:Work></rdf:RDF></metadata><defs id="defs185"/><sodipodi:namedview pagecolor="#ffffff" bordercolor="#666666" borderopacity="1" objecttolerance="10" gridtolerance="10" guidetolerance="10" inkscape:pageopacity="0" inkscape:pageshadow="2" inkscape:window-width="1280" inkscape:window-height="974" id="namedview183" showgrid="false" fit-margin-top="10" fit-margin-left="10" fit-margin-right="10" fit-margin-bottom="10" inkscape:zoom="0.5" inkscape:cx="379.46728" inkscape:cy="381.15368" inkscape:window-x="0" inkscape:window-y="0" inkscape:window-maximized="1" inkscape:current-layer="Layer_1"/><path d="m 432.623,250.58599 c 0,0 -5.446,-50.776 -55.826,-52.186 -50.38,-1.41 -76.254,38.082 -76.254,94.499 0,56.417 28.595,101.553 77.614,101.553 49.02,0 54.466,-56.417 54.466,-56.417 l 93.953,5.641 c 0,0 5.532,50.954 -33.784,89.829 -39.317,38.872 -87.575,45.223 -121.276,44.959 -33.701,-0.269 -80.427,0.528 -125.613,-45.752 -45.186,-46.28 -52.854,-91.239 -52.854,-135.403 0,-44.166 8.569,-102.673 62.296,-147.04 36.514,-30.148 73.529,-41.256 110.55,-41.256 154.551,0 164.931,142.544 164.931,142.544 l -98.203,-0.971 z" id="path3" inkscape:connector-curvature="0" style="fill:#a8b9cc"/><g id="g5" transform="translate(-132.125,-197.58301)"><g id="g7"><path d="m 400.974,207.588 h 51.648 l 0.083,17.922 h -2.469 c -0.805,-6.41 -3.127,-10.749 -6.954,-13.013 -2.146,-1.248 -5.357,-1.93 -9.629,-2.042 v 46.806 c 0,3.272 0.55,5.442 1.655,6.512 1.101,1.07 3.399,1.607 6.89,1.607 v 2.256 H 411.62 v -2.256 c 3.351,0 5.578,-0.542 6.686,-1.628 1.101,-1.083 1.651,-3.248 1.651,-6.492 v -46.806 c -4.185,0.112 -7.4,0.794 -9.63,2.042 -4.105,2.318 -6.423,6.657 -6.953,13.013 h -2.473 l 0.073,-17.921 z" id="path9" inkscape:connector-curvature="0" style="fill:#1b75b3"/><path d="m 463.48,265.381 c 2.291,-0.111 3.91,-0.446 4.858,-0.996 1.597,-0.93 2.387,-2.678 2.387,-5.252 v -43.042 c 0,-2.5 -0.714,-4.194 -2.13,-5.087 -0.87,-0.516 -2.573,-0.904 -5.115,-1.165 v -2.256 h 29.025 v 2.256 c -2.509,0.144 -4.26,0.491 -5.233,1.033 -1.62,0.917 -2.426,2.657 -2.426,5.214 v 18.438 h 20.44 v -18.438 c 0,-2.557 -0.77,-4.281 -2.306,-5.172 -0.948,-0.546 -2.721,-0.906 -5.321,-1.075 v -2.256 h 29.193 v 2.256 c -2.51,0.198 -4.229,0.574 -5.15,1.119 -1.54,0.897 -2.303,2.604 -2.303,5.132 v 43.042 c 0,2.599 0.852,4.363 2.554,5.293 0.975,0.549 2.613,0.868 4.899,0.955 v 2.256 h -29.193 v -2.256 c 2.457,-0.087 4.205,-0.434 5.238,-1.042 1.591,-0.925 2.389,-2.661 2.389,-5.202 v -20.479 h -20.44 v 20.479 c 0,2.632 0.861,4.409 2.593,5.334 1.006,0.521 2.697,0.826 5.066,0.909 v 2.256 H 463.48 v -2.254 z" id="path11" inkscape:connector-curvature="0" style="fill:#1b75b3"/><path d="m 536.045,267.638 v -2.256 c 2.461,-0.087 4.205,-0.434 5.236,-1.042 1.594,-0.925 2.391,-2.661 2.391,-5.202 v -43.042 c 0,-2.587 -0.825,-4.322 -2.468,-5.215 -0.95,-0.541 -2.669,-0.889 -5.159,-1.033 v -2.251 h 49.431 v 17.917 h -2.095 c -1.092,-5.727 -2.939,-9.648 -5.549,-11.76 -2.612,-2.112 -7.364,-3.169 -14.262,-3.169 -2.624,0 -4.291,0.284 -5.006,0.847 -0.711,0.566 -1.074,1.686 -1.074,3.363 v 20.566 c 4.888,0.058 8.202,-0.859 9.936,-2.756 1.729,-1.888 3.058,-5.355 3.975,-10.393 h 2.179 v 30.029 h -2.18 c -0.609,-5.062 -1.862,-8.628 -3.744,-10.698 -1.889,-2.066 -5.274,-3.103 -10.157,-3.103 v 21.52 c 0,1.88 0.466,3.162 1.403,3.842 0.934,0.682 2.857,1.021 5.762,1.021 5.472,0 9.94,-1.1 13.399,-3.298 3.462,-2.194 6.538,-6.318 9.22,-12.363 h 2.384 l -3.478,18.483 h -50.145 v -0.007 z" id="path13" inkscape:connector-curvature="0" style="fill:#1b75b3"/></g></g><g id="g15" transform="translate(-132.125,-197.58301)"><g id="g17"><path d="m 142.125,771.558 c 2.816,-0.203 4.715,-0.814 5.672,-1.843 0.966,-1.025 1.449,-3.116 1.449,-6.273 v -39.306 c 0,-3.338 -0.491,-5.446 -1.469,-6.322 -0.977,-0.88 -2.864,-1.479 -5.652,-1.793 v -2.257 h 27.601 c 7.316,0 12.882,1.231 16.691,3.686 3.818,2.463 5.721,6.686 5.721,12.67 0,2.925 -0.746,5.665 -2.238,8.223 -1.496,2.558 -3.958,4.619 -7.396,6.182 -2.597,1.099 -5.19,1.768 -7.787,2 -2.601,0.235 -6.451,0.347 -11.561,0.347 v 16.57 c 0,3.272 0.53,5.413 1.592,6.425 1.061,1.013 3.043,1.579 5.948,1.691 v 2.256 h -28.567 v -2.256 h -0.004 z m 31.247,-29.591 c 2.708,-1.793 4.065,-5.657 4.065,-11.578 0,-4.05 -0.659,-7.323 -1.971,-9.811 -1.312,-2.487 -3.83,-3.727 -7.54,-3.727 -1.704,0 -2.928,0.207 -3.666,0.628 -0.742,0.422 -1.109,1.235 -1.109,2.447 v 23.867 c 5.11,-0.09 8.517,-0.698 10.221,-1.826 z" id="path19" inkscape:connector-curvature="0" style="fill:#1b75b3"/><path d="m 196.414,771.558 c 2.904,-0.145 4.887,-0.711 5.949,-1.691 1.06,-0.983 1.591,-3.123 1.591,-6.425 v -39.306 c 0,-3.425 -0.626,-5.652 -1.883,-6.694 -0.838,-0.686 -2.725,-1.161 -5.653,-1.421 v -2.257 h 27.602 c 5.724,0 10.359,0.62 13.906,1.868 6.869,2.512 10.3,7.041 10.3,13.578 0,4.831 -1.795,8.636 -5.394,11.413 -2.748,2.083 -5.665,3.414 -8.736,3.988 l 18.235,25.297 c 0.471,0.694 0.974,1.145 1.504,1.367 0.53,0.215 1.188,0.356 1.97,0.414 v 2.124 h -17.899 l -20.014,-27.764 h -0.036 v 17.393 c 0,3.124 0.502,5.231 1.508,6.313 1.005,1.086 3.016,1.686 6.032,1.802 v 2.256 H 196.41 v -2.256 h 0.004 z m 33.485,-30.826 c 2.414,-1.542 3.623,-5.128 3.623,-10.74 0,-3.438 -0.462,-6.161 -1.38,-8.157 -1.592,-3.385 -4.496,-5.079 -8.713,-5.079 -2.294,0 -3.793,0.298 -4.507,0.893 -0.711,0.599 -1.065,1.57 -1.065,2.925 v 22.607 c 5.616,-0.086 9.629,-0.904 12.042,-2.449 z" id="path21" inkscape:connector-curvature="0" style="fill:#1b75b3"/><path d="m 313.697,721.095 c 5.892,5.934 8.84,13.57 8.84,22.909 0,9.347 -2.944,16.983 -8.84,22.909 -5.753,5.785 -12.941,8.678 -21.574,8.678 -9.155,0 -16.631,-3.166 -22.407,-9.5 -5.39,-5.958 -8.086,-13.157 -8.086,-21.604 0,-9.314 2.821,-16.971 8.461,-22.955 5.697,-6.074 13.037,-9.111 22.032,-9.111 8.657,-0.003 15.85,2.889 21.574,8.674 z m -8.337,39.661 c 1.28,-4.281 1.926,-9.868 1.926,-16.752 0,-9.455 -1.36,-16.587 -4.089,-21.388 -2.729,-4.806 -6.422,-7.202 -11.093,-7.202 -6.487,0 -10.935,4 -13.341,12.02 -1.26,4.248 -1.886,9.777 -1.886,16.57 0,6.917 0.642,12.496 1.926,16.752 2.378,7.892 6.81,11.842 13.296,11.842 6.439,0.001 10.855,-3.95 13.261,-11.842 z" id="path23" inkscape:connector-curvature="0" style="fill:#1b75b3"/><path d="m 338.877,721.963 c 5.701,-6.215 12.969,-9.326 21.821,-9.326 3.546,0 7.081,0.69 10.599,2.062 3.515,1.371 5.708,2.053 6.574,2.053 0.926,0 1.664,-0.326 2.218,-0.992 0.555,-0.666 1.021,-1.677 1.38,-3.036 h 2.386 v 20.78 h -2.179 c -2.066,-4.508 -4.172,-8.07 -6.323,-10.673 -4.016,-4.801 -8.572,-7.198 -13.654,-7.198 -5.529,0 -9.562,2.487 -12.104,7.463 -2.541,4.979 -3.81,11.975 -3.81,21 0,7.405 1.177,14.013 3.538,19.81 2.357,5.797 6.918,8.698 13.679,8.698 3.659,0 6.116,-0.794 7.373,-2.385 0.726,-0.893 1.089,-2.256 1.089,-4.074 v -9.376 c 0,-2.694 -0.793,-4.454 -2.385,-5.297 -1.033,-0.521 -3.128,-0.806 -6.279,-0.869 v -2.251 h 29.401 v 2.251 c -2.96,0.116 -4.923,0.74 -5.884,1.852 -0.962,1.112 -1.449,3.203 -1.449,6.264 v 11.327 c -1.899,1.214 -4.97,2.426 -9.214,3.641 -4.245,1.214 -8.992,1.83 -14.242,1.83 -9.518,0 -17.13,-3.111 -22.826,-9.33 -5.306,-5.814 -7.955,-13.108 -7.955,-21.868 -0.007,-8.86 2.745,-16.306 8.246,-22.356 z" id="path25" inkscape:connector-curvature="0" style="fill:#1b75b3"/><path d="m 397.475,771.558 c 2.904,-0.145 4.887,-0.711 5.948,-1.691 1.064,-0.983 1.596,-3.123 1.596,-6.425 v -39.306 c 0,-3.425 -0.63,-5.652 -1.887,-6.694 -0.833,-0.686 -2.721,-1.161 -5.652,-1.421 v -2.257 h 27.602 c 5.725,0 10.36,0.62 13.906,1.868 6.87,2.512 10.304,7.041 10.304,13.578 0,4.831 -1.799,8.636 -5.397,11.413 -2.749,2.083 -5.661,3.414 -8.733,3.988 l 18.231,25.297 c 0.475,0.694 0.978,1.145 1.508,1.367 0.526,0.215 1.189,0.356 1.966,0.414 v 2.124 h -17.9 l -20.014,-27.764 h -0.036 v 17.393 c 0,3.124 0.503,5.231 1.507,6.313 1.006,1.086 3.017,1.686 6.036,1.802 v 2.256 h -28.989 v -2.256 h 0.004 z m 33.489,-30.826 c 2.414,-1.542 3.623,-5.128 3.623,-10.74 0,-3.438 -0.458,-6.161 -1.38,-8.157 -1.591,-3.385 -4.496,-5.079 -8.712,-5.079 -2.294,0 -3.79,0.298 -4.508,0.893 -0.71,0.599 -1.065,1.57 -1.065,2.925 v 22.607 c 5.612,-0.086 9.629,-0.904 12.042,-2.449 z" id="path27" inkscape:connector-curvature="0" style="fill:#1b75b3"/><path d="m 461.482,771.558 c 2.066,-0.145 3.729,-1.116 4.982,-2.91 0.81,-1.127 1.971,-3.615 3.478,-7.467 l 19.061,-48.631 h 2.387 l 19.139,46.681 c 2.155,5.235 3.759,8.612 4.823,10.136 1.061,1.513 2.569,2.248 4.52,2.19 v 2.256 h -27.769 v -2.256 c 2.796,-0.112 4.631,-0.364 5.513,-0.736 0.878,-0.38 1.316,-1.327 1.316,-2.868 0,-0.693 -0.223,-1.748 -0.667,-3.165 -0.278,-0.839 -0.657,-1.855 -1.132,-3.037 l -2.183,-5.38 h -19.26 c -1.257,3.529 -2.066,5.831 -2.43,6.896 -0.757,2.29 -1.133,3.956 -1.133,4.997 0,1.272 0.827,2.198 2.473,2.773 0.974,0.318 2.442,0.492 4.397,0.521 v 2.256 h -17.505 v -2.256 h -0.01 z m 32.205,-18.703 -8.254,-20.558 h -0.718 l -7.747,20.558 h 16.719 z" id="path29" inkscape:connector-curvature="0" style="fill:#1b75b3"/><path d="m 524.942,771.558 c 3.268,-0.029 5.39,-0.625 6.37,-1.802 0.975,-1.169 1.465,-2.925 1.465,-5.273 V 722.27 c 0,-2.414 -0.562,-4 -1.68,-4.76 -1.113,-0.765 -3.096,-1.257 -5.943,-1.492 v -2.256 h 21.61 l 16.886,41.136 h 0.71 l 16.782,-41.136 h 21.626 v 2.256 c -2.904,0.235 -4.883,0.79 -5.947,1.666 -1.062,0.876 -1.592,3.028 -1.592,6.45 v 39.306 c 0,3.272 0.53,5.413 1.592,6.425 1.064,1.013 3.043,1.578 5.947,1.69 v 2.256 h -28.482 v -2.256 c 2.54,-0.087 4.451,-0.529 5.74,-1.318 1.276,-0.798 1.923,-2.542 1.923,-5.231 v -43.43 h -0.626 l -21.024,52.239 h -2.301 l -21.234,-51.198 h -0.384 v 40.177 c 0,2.959 0.536,5.128 1.6,6.492 1.057,1.368 3.403,2.124 7.037,2.269 v 2.256 h -20.065 v -2.252 h -0.01 z" id="path31" inkscape:connector-curvature="0" style="fill:#1b75b3"/><path d="m 607.8,771.558 c 3.267,-0.029 5.388,-0.625 6.365,-1.802 0.978,-1.169 1.469,-2.925 1.469,-5.273 V 722.27 c 0,-2.414 -0.562,-4 -1.676,-4.76 -1.12,-0.765 -3.104,-1.257 -5.952,-1.492 v -2.256 h 21.615 l 16.881,41.136 h 0.71 L 664,713.761 h 21.626 v 2.256 c -2.905,0.235 -4.888,0.79 -5.948,1.666 -1.062,0.876 -1.594,3.028 -1.594,6.45 v 39.306 c 0,3.272 0.532,5.413 1.594,6.425 1.061,1.013 3.043,1.578 5.948,1.69 v 2.256 h -28.483 v -2.256 c 2.536,-0.087 4.451,-0.529 5.734,-1.318 1.282,-0.798 1.928,-2.542 1.928,-5.231 v -43.43 h -0.625 l -21.023,52.239 h -2.303 l -21.238,-51.198 h -0.379 v 40.177 c 0,2.959 0.531,5.128 1.596,6.492 1.061,1.368 3.403,2.124 7.04,2.269 v 2.256 h -20.065 v -2.252 H 607.8 z" id="path33" inkscape:connector-curvature="0" style="fill:#1b75b3"/><path d="m 690.859,771.558 c 2.433,-0.058 4.172,-0.364 5.237,-0.91 1.731,-0.925 2.597,-2.707 2.597,-5.338 v -43.04 c 0,-2.612 -0.825,-4.364 -2.474,-5.257 -1.005,-0.545 -2.792,-0.876 -5.357,-0.991 v -2.257 h 29.991 v 2.257 c -2.679,0.115 -4.52,0.434 -5.529,0.954 -1.675,0.889 -2.513,2.653 -2.513,5.298 v 43.04 c 0,2.488 0.671,4.145 2.011,4.992 1.336,0.834 3.347,1.256 6.031,1.256 v 2.256 h -29.991 v -2.26 h -0.003 z" id="path35" inkscape:connector-curvature="0" style="fill:#1b75b3"/><path d="m 726.133,771.558 c 3.183,-0.087 5.237,-0.716 6.158,-1.885 0.925,-1.169 1.381,-2.901 1.381,-5.19 v -42.082 c -2.625,-3.041 -4.24,-4.827 -4.856,-5.359 -0.614,-0.533 -1.446,-0.876 -2.513,-1.021 v -2.257 h 18.183 l 29.488,37.124 h 0.42 v -26.103 c 0,-3.008 -0.527,-5.153 -1.579,-6.442 -1.062,-1.289 -3.168,-2.058 -6.34,-2.322 v -2.257 h 18.435 v 2.257 c -2.682,0.463 -4.479,1.078 -5.382,1.855 -0.91,0.773 -1.359,2.516 -1.359,5.215 v 52.367 h -2.391 l -37.741,-47.507 h -0.583 v 34.834 c 0,2.736 0.358,4.669 1.085,5.798 1.146,1.839 3.491,2.822 7.041,2.966 v 2.256 h -19.44 v -2.248 h -0.007 z" id="path37" inkscape:connector-curvature="0" style="fill:#1b75b3"/><path d="m 799.98,721.963 c 5.695,-6.215 12.969,-9.326 21.821,-9.326 3.547,0 7.079,0.69 10.603,2.062 3.519,1.371 5.705,2.053 6.575,2.053 0.916,0 1.659,-0.326 2.218,-0.992 0.559,-0.666 1.017,-1.677 1.379,-3.036 h 2.391 v 20.78 h -2.174 c -2.07,-4.508 -4.177,-8.07 -6.328,-10.673 -4.016,-4.801 -8.577,-7.198 -13.658,-7.198 -5.53,0 -9.562,2.487 -12.104,7.463 -2.539,4.979 -3.812,11.975 -3.812,21 0,7.405 1.181,14.013 3.538,19.81 2.357,5.797 6.918,8.698 13.68,8.698 3.658,0 6.114,-0.794 7.372,-2.385 0.726,-0.893 1.092,-2.256 1.092,-4.074 v -9.376 c 0,-2.694 -0.792,-4.454 -2.394,-5.297 -1.032,-0.521 -3.127,-0.806 -6.274,-0.869 v -2.251 h 29.397 v 2.251 c -2.961,0.116 -4.915,0.74 -5.881,1.852 -0.962,1.112 -1.448,3.203 -1.448,6.264 v 11.327 c -1.898,1.214 -4.971,2.426 -9.214,3.641 -4.246,1.214 -8.992,1.83 -14.238,1.83 -9.522,0 -17.134,-3.111 -22.834,-9.33 -5.306,-5.814 -7.951,-13.108 -7.951,-21.868 -0.006,-8.86 2.743,-16.306 8.244,-22.356 z" id="path39" inkscape:connector-curvature="0" style="fill:#1b75b3"/><path d="m 243.327,860.416 c 2.342,-0.086 4.018,-0.405 5.023,-0.954 1.704,-0.93 2.554,-2.69 2.554,-5.302 v -43.032 c 0,-2.587 -0.811,-4.323 -2.43,-5.215 -0.95,-0.545 -2.669,-0.888 -5.15,-1.033 v -2.256 h 29.991 v 2.256 c -3.491,0.116 -5.816,0.62 -6.977,1.512 -1.161,0.893 -1.735,3.086 -1.735,6.603 v 41.991 c 0,1.976 0.495,3.273 1.484,3.913 0.994,0.637 2.928,0.959 5.8,0.959 5.171,0 9.503,-1.182 13.009,-3.537 3.499,-2.355 6.527,-6.95 9.068,-13.777 h 2.513 l -3.479,20.132 h -49.674 v -2.261 h 0.003 z" id="path41" inkscape:connector-curvature="0" style="fill:#1b75b3"/><path d="m 302.946,860.416 c 2.066,-0.145 3.729,-1.115 4.982,-2.909 0.81,-1.128 1.971,-3.616 3.475,-7.467 l 19.061,-48.632 h 2.385 l 19.144,46.682 c 2.15,5.235 3.755,8.611 4.815,10.136 1.061,1.512 2.569,2.248 4.524,2.189 v 2.257 h -27.77 v -2.257 c 2.792,-0.111 4.627,-0.363 5.508,-0.735 0.878,-0.38 1.321,-1.327 1.321,-2.868 0,-0.694 -0.227,-1.748 -0.67,-3.166 -0.279,-0.839 -0.658,-1.855 -1.133,-3.037 l -2.182,-5.38 h -19.259 c -1.257,3.529 -2.067,5.831 -2.43,6.896 -0.753,2.29 -1.128,3.955 -1.128,4.996 0,1.272 0.822,2.198 2.47,2.772 0.977,0.319 2.441,0.492 4.4,0.521 v 2.257 H 302.95 v -2.257 h -0.004 z m 32.201,-18.702 -8.25,-20.557 h -0.722 l -7.744,20.557 h 16.716 z" id="path43" inkscape:connector-curvature="0" style="fill:#1b75b3"/><path d="m 367.128,860.416 c 3.184,-0.086 5.238,-0.715 6.156,-1.884 0.925,-1.169 1.381,-2.901 1.381,-5.19 V 811.26 c -2.626,-3.042 -4.245,-4.826 -4.855,-5.36 -0.614,-0.533 -1.452,-0.875 -2.513,-1.02 v -2.256 h 18.179 l 29.488,37.124 h 0.423 v -26.103 c 0,-3.008 -0.531,-5.153 -1.588,-6.442 -1.057,-1.286 -3.164,-2.058 -6.331,-2.322 v -2.256 h 18.431 v 2.256 c -2.677,0.463 -4.476,1.079 -5.377,1.855 -0.914,0.772 -1.361,2.517 -1.361,5.214 v 52.367 h -2.386 L 379.033,816.81 h -0.59 v 34.833 c 0,2.736 0.362,4.67 1.093,5.797 1.145,1.839 3.487,2.823 7.038,2.967 v 2.256 h -19.436 v -2.248 h -0.01 z" id="path45" inkscape:connector-curvature="0" style="fill:#1b75b3"/><path d="m 441.496,810.822 c 5.697,-6.215 12.969,-9.327 21.821,-9.327 3.547,0 7.082,0.69 10.596,2.062 3.518,1.372 5.712,2.053 6.578,2.053 0.921,0 1.663,-0.326 2.217,-0.992 0.555,-0.665 1.022,-1.678 1.38,-3.038 h 2.387 v 20.781 h -2.179 c -2.066,-4.508 -4.172,-8.07 -6.323,-10.673 -4.017,-4.802 -8.573,-7.198 -13.655,-7.198 -5.529,0 -9.562,2.487 -12.104,7.463 -2.541,4.979 -3.813,11.974 -3.813,21 0,7.404 1.181,14.012 3.543,19.81 2.357,5.797 6.917,8.698 13.678,8.698 3.659,0 6.116,-0.793 7.373,-2.384 0.726,-0.893 1.089,-2.256 1.089,-4.075 v -9.376 c 0,-2.694 -0.794,-4.455 -2.385,-5.297 -1.034,-0.521 -3.128,-0.806 -6.279,-0.868 v -2.252 h 29.4 v 2.252 c -2.959,0.115 -4.922,0.739 -5.884,1.851 -0.961,1.112 -1.448,3.202 -1.448,6.264 v 11.326 c -1.899,1.215 -4.972,2.426 -9.215,3.641 -4.245,1.215 -8.992,1.831 -14.241,1.831 -9.523,0 -17.13,-3.111 -22.827,-9.33 -5.306,-5.814 -7.955,-13.107 -7.955,-21.868 -0.008,-8.859 2.745,-16.305 8.246,-22.354 z" id="path47" inkscape:connector-curvature="0" style="fill:#1b75b3"/><path d="m 529.599,802.624 v 2.256 c -3.323,0.116 -5.541,0.648 -6.662,1.595 -1.113,0.955 -1.676,3.124 -1.676,6.521 v 29.777 c 0,4.52 0.519,8.012 1.553,10.475 1.874,4.574 5.46,6.863 10.767,6.863 6.59,0 11.041,-2.529 13.358,-7.595 1.281,-2.781 1.927,-6.673 1.927,-11.686 v -27.186 c 0,-3.182 -0.565,-5.376 -1.694,-6.575 -1.13,-1.198 -3.343,-1.93 -6.638,-2.194 v -2.256 h 18.846 v 2.256 c -2.738,0.549 -4.541,1.223 -5.422,2.021 -0.882,0.793 -1.316,2.628 -1.316,5.488 v 28.421 c 0,7.549 -1.768,13.379 -5.281,17.487 -3.52,4.107 -9.049,6.157 -16.588,6.157 -9.861,0 -16.601,-3.05 -20.233,-9.161 -1.927,-3.244 -2.889,-7.425 -2.889,-12.549 v -29.744 c 0,-3.338 -0.428,-5.438 -1.276,-6.306 -0.85,-0.855 -2.773,-1.463 -5.757,-1.81 v -2.256 h 28.981 z" id="path49" inkscape:connector-curvature="0" style="fill:#1b75b3"/><path d="m 565.131,860.416 c 2.065,-0.145 3.729,-1.115 4.989,-2.909 0.808,-1.128 1.967,-3.616 3.479,-7.467 l 19.056,-48.632 h 2.391 l 19.14,46.682 c 2.15,5.235 3.757,8.611 4.824,10.136 1.057,1.512 2.563,2.248 4.518,2.189 v 2.257 h -27.771 v -2.257 c 2.796,-0.111 4.631,-0.363 5.512,-0.735 0.879,-0.38 1.317,-1.327 1.317,-2.868 0,-0.694 -0.228,-1.748 -0.666,-3.166 -0.284,-0.839 -0.658,-1.855 -1.133,-3.037 l -2.183,-5.38 h -19.26 c -1.261,3.529 -2.07,5.831 -2.434,6.896 -0.758,2.29 -1.13,3.955 -1.13,4.996 0,1.272 0.823,2.198 2.472,2.772 0.972,0.319 2.438,0.492 4.396,0.521 v 2.257 h -17.509 v -2.257 h -0.008 z m 32.204,-18.702 -8.25,-20.557 h -0.722 l -7.747,20.557 h 16.719 z" id="path51" inkscape:connector-curvature="0" style="fill:#1b75b3"/><path d="m 639.326,810.822 c 5.701,-6.215 12.969,-9.327 21.821,-9.327 3.546,0 7.081,0.69 10.604,2.062 3.518,1.372 5.704,2.053 6.574,2.053 0.922,0 1.659,-0.326 2.217,-0.992 0.559,-0.665 1.018,-1.678 1.382,-3.038 h 2.389 v 20.781 h -2.174 c -2.066,-4.508 -4.177,-8.07 -6.328,-10.673 -4.016,-4.802 -8.576,-7.198 -13.658,-7.198 -5.529,0 -9.562,2.487 -12.104,7.463 -2.541,4.979 -3.813,11.974 -3.813,21 0,7.404 1.18,14.012 3.543,19.81 2.354,5.797 6.913,8.698 13.675,8.698 3.658,0 6.114,-0.793 7.371,-2.384 0.727,-0.893 1.094,-2.256 1.094,-4.075 v -9.376 c 0,-2.694 -0.794,-4.455 -2.39,-5.297 -1.033,-0.521 -3.131,-0.806 -6.279,-0.868 v -2.252 h 29.397 v 2.252 c -2.961,0.115 -4.916,0.739 -5.881,1.851 -0.961,1.112 -1.443,3.202 -1.443,6.264 v 11.326 c -1.904,1.215 -4.975,2.426 -9.221,3.641 -4.24,1.215 -8.987,1.831 -14.236,1.831 -9.522,0 -17.134,-3.111 -22.831,-9.33 -5.31,-5.814 -7.954,-13.107 -7.954,-21.868 -0.005,-8.859 2.743,-16.305 8.245,-22.354 z" id="path53" inkscape:connector-curvature="0" style="fill:#1b75b3"/><path d="m 698.446,862.673 v -2.257 c 2.457,-0.086 4.2,-0.434 5.233,-1.041 1.597,-0.925 2.39,-2.661 2.39,-5.203 v -43.041 c 0,-2.587 -0.825,-4.322 -2.468,-5.215 -0.95,-0.545 -2.669,-0.888 -5.155,-1.033 v -2.252 h 49.427 v 17.914 h -2.091 c -1.097,-5.728 -2.943,-9.645 -5.552,-11.756 -2.609,-2.112 -7.365,-3.169 -14.263,-3.169 -2.624,0 -4.291,0.285 -5.006,0.847 -0.711,0.566 -1.069,1.686 -1.069,3.363 v 20.566 c 4.883,0.057 8.197,-0.86 9.93,-2.757 1.73,-1.889 3.06,-5.359 3.977,-10.392 h 2.179 v 30.029 h -2.179 c -0.61,-5.059 -1.863,-8.624 -3.745,-10.694 -1.888,-2.066 -5.274,-3.099 -10.157,-3.099 v 21.524 c 0,1.872 0.466,3.153 1.403,3.835 0.934,0.682 2.856,1.021 5.762,1.021 5.472,0 9.941,-1.1 13.399,-3.297 3.463,-2.194 6.538,-6.318 9.219,-12.368 h 2.385 l -3.478,18.484 h -50.141 v -0.009 z" id="path55" inkscape:connector-curvature="0" style="fill:#1b75b3"/></g></g></svg>